<?xml version="1.0" encoding="UTF-8"?>
<svg width="256px" height="256px" viewBox="0 0 128 128" version="1.1" xmlns="http://www.w3.org/2000/svg" xmlns:xlink="http://www.w3.org/1999/xlink">
    <!-- Generator: Sketch 58 (84663) - https://sketch.com -->
    <title>Assets icon</title>
    <desc>Created with Sketch.</desc>
    <defs>
        <path d="M28.4319145,27.8261546 C31.5391859,26.2047986 34.4998879,24.6129217 37.9589259,24.4950049 C40.8903141,24.3770881 42.4439498,25.8805274 42.4439498,28.8579266 C42.4732636,32.2185555 41.652475,35.4612676 41.2127668,38.7629381 C41.0955112,39.7357517 40.5971752,40.8264821 40.8903141,41.6224206 C41.1834529,42.418359 42.5612053,42.123567 43.3526801,42.6247134 C44.2027826,43.155339 44.9649436,43.007943 45.7857322,42.5362758 C51.4139974,39.2935637 55.5179408,34.6063708 57.8630513,28.5926138 C60.8823811,20.7806256 55.9283351,12.6738454 47.2807402,10.9640518 C42.0042415,9.90280052 36.962254,10.8461349 32.1254636,12.9981166 C24.5038544,16.3882247 18.0841144,21.1638552 14.3612515,28.8874058 C12.8076158,32.1301179 11.6936883,35.5497052 12.7196742,39.2640845 C12.8662436,39.7947101 12.6024186,39.9715853 12.2213382,40.1484605 C9.64171663,41.4455454 7.0327812,42.6836718 4.16002083,43.2437766 C1.25794659,43.8038814 -0.325003002,42.2414838 0.0560774549,39.2640845 C0.730296724,34.1641828 3.10472111,29.8307403 6.35856193,26.0279234 C17.1460702,13.4697838 30.4252584,4.77341959 46.577207,0.852685883 C50.4466393,-0.0906485424 54.4040133,-0.326482149 58.3320734,0.528414674 C67.8883987,2.56247953 73.3114667,11.6420734 70.6732174,21.2522928 C68.7678151,28.2388634 64.370733,33.5745988 59.1528621,38.3207501 C56.0749046,41.1212742 52.7917499,43.6859646 48.9223175,45.3957583 C48.1601566,45.7200295 48.2774121,46.0443007 48.7464342,46.5454471 C52.0589028,50.1713888 53.9056773,54.5932689 55.3420575,59.2215034 C57.4819709,66.1785948 60.2081618,72.8998526 64.106908,79.0904848 C65.4846604,81.3014248 67.0089823,83.4239273 69.5006622,84.8978873 C65.9243687,86.7845562 62.5239584,88.5827874 58.6252122,89.0839338 C55.2834298,89.4966426 52.996947,87.9932034 51.4726252,85.1042417 C49.801734,81.9499672 49.0982008,78.4714216 48.3360399,75.0223551 C46.6651487,67.4462005 45.84436,59.7226499 43.9389577,52.2054537 C43.5871911,50.8788896 43.118169,49.5818048 42.6198331,48.3141991 C42.1801248,47.1939895 41.3007084,47.5477399 40.5385475,47.4887815 C39.6298172,47.4298231 39.6884449,48.1668031 39.6005033,48.6974288 C38.8969701,54.3279561 38.0468676,59.9879627 38.6038313,65.7069276 C38.6331452,66.060678 38.6331452,66.3849492 38.691773,66.7386996 C39.0142257,69.1265149 39.0142257,69.0085981 36.4932319,68.8317229 C30.5718279,68.3895349 29.8096669,65.9427612 29.7217253,61.1081723 C29.6337837,56.4799378 30.5718279,51.9401408 30.8942805,47.3413855 C31.2460471,42.5362758 31.5684998,37.7311661 30.777025,32.9555355 C30.5132001,31.0099083 30.044178,29.2411562 28.4319145,27.8261546" id="path-1"></path>
    </defs>
    <g id="Assets-icon" stroke="none" stroke-width="1" fill="none" fill-rule="evenodd">
        <rect id="Rectangle" fill="#001489" x="0" y="0" width="128" height="128"></rect>
        <g id="icon/default" transform="translate(22.000000, 19.000000)">
            <g id="color/resengo-blue">
                <mask id="mask-2" fill="white">
                    <use xlink:href="#path-1"></use>
                </mask>
                <use id="Mask" fill="#001489" xlink:href="#path-1"></use>
                <g id="color/white" mask="url(#mask-2)" fill="#FFFFFF">
                    <rect id="tile" x="0" y="0" width="73" height="90"></rect>
                </g>
            </g>
        </g>
    </g>
</svg>
